<?xml version="1.0" standalone="no"?><!DOCTYPE svg PUBLIC "-//W3C//DTD SVG 1.1//EN" "http://www.w3.org/Graphics/SVG/1.1/DTD/svg11.dtd"><svg t="1717642956686" class="icon" viewBox="0 0 5628 1024" version="1.1" xmlns="http://www.w3.org/2000/svg" p-id="5490" xmlns:xlink="http://www.w3.org/1999/xlink" width="175.875" height="32"><path d="M4635.84097282 906.78592422H1088.87246311A373.09111024 373.09111024 0 0 1 693.22235585 512.87112449 373.09111024 373.09111024 0 0 1 1088.87246311 117.22101647h3546.96850971A373.09111024 373.09111024 0 0 1 5031.49108084 512.87112449a395.65010802 395.65010802 0 0 1-395.65010802 393.91479973z" fill="#8a8a8a" p-id="5491" data-spm-anchor-id="a313x.search_index.0.i4.a9c33a81Q48COY" class="selected"></path><path d="M2813.76810813 906.78592422H1869.76083402A373.09111024 373.09111024 0 0 1 1474.11072601 512.87112449 373.09111024 373.09111024 0 0 1 1869.76083402 117.22101647h944.0072741a373.09111024 373.09111024 0 0 1 395.65010803 395.65010802 395.65010802 395.65010802 0 0 1-395.65010803 393.91479973z" fill="#e2e8ef" p-id="5492"></path></svg>