<?xml version="1.0" standalone="no"?><!DOCTYPE svg PUBLIC "-//W3C//DTD SVG 1.1//EN" "http://www.w3.org/Graphics/SVG/1.1/DTD/svg11.dtd"><svg t="1717638293159" class="icon" viewBox="0 0 1024 1024" version="1.1" xmlns="http://www.w3.org/2000/svg" p-id="4492" xmlns:xlink="http://www.w3.org/1999/xlink" width="32" height="32"><path d="M832 213.333333a21.333333 21.333333 0 0 1 20.949333 17.493334L853.333333 234.666667v128a21.333333 21.333333 0 0 1-42.325333 3.84L810.666667 362.666667V255.957333h-277.205334V768H640a21.333333 21.333333 0 0 1 3.84 42.325333L640 810.666667H384a21.333333 21.333333 0 0 1-3.84-42.325334L384 768h106.794667V255.957333H213.333333V362.666667a21.333333 21.333333 0 0 1-17.493333 20.992L192 384a21.333333 21.333333 0 0 1-20.992-17.493333L170.666667 362.666667v-128a21.333333 21.333333 0 0 1 17.493333-20.992L192 213.333333h640z" fill="#8a8a8a" p-id="4493"></path></svg>